<svg width="18" height="17" viewBox="0 0 18 17" fill="none" xmlns="http://www.w3.org/2000/svg">
    <path d="M9 12.4V3.1L10.71 7.13L15.09 7.5L11.77 10.39L12.76 14.67L9 12.4ZM17.2086 7.79189C17.8772 7.21268 17.5198 6.11442 16.6384 6.03964L12.4109 5.68098C12.0413 5.64962 11.7194 5.41629 11.5747 5.07479L9.92072 1.17237C9.57613 0.359343 8.42387 0.359341 8.07928 1.17237L6.42532 5.07479C6.28058 5.41629 5.95871 5.64962 5.58914 5.68098L1.35864 6.03989C0.477648 6.11464 0.119977 7.21202 0.78772 7.79154L3.99532 10.5754C4.27505 10.8182 4.39768 11.1957 4.31401 11.5565L3.35429 15.6957C3.15464 16.5567 4.08842 17.2344 4.84518 16.7777L8.48326 14.5819C8.80106 14.3901 9.19894 14.3901 9.51674 14.5819L13.151 16.7754C13.9083 17.2325 14.8425 16.5535 14.6416 15.692L13.6771 11.5578C13.5928 11.1963 13.7156 10.8178 13.9962 10.5748L17.2086 7.79189Z" fill="#FFDE00"/>
</svg>
